<svg width="40" height="40" viewBox="0 0 40 40" fill="none" xmlns="http://www.w3.org/2000/svg">
<ellipse cx="20.0001" cy="20" rx="20.0001" ry="20" fill="#00AEF3"/>
<path fill-rule="evenodd" clip-rule="evenodd" d="M28.4081 20.0908C28.4081 20.6948 28.3412 21.2833 28.2155 21.8502C28.5361 22.4866 28.7172 23.2032 28.7172 23.9621C28.7172 26.5882 26.5582 28.7172 23.8946 28.7172C23.0699 28.7172 22.2936 28.5127 21.6147 28.1529C21.1211 28.243 20.6122 28.2905 20.092 28.2905C15.4991 28.2905 11.7759 24.6193 11.7759 20.0907C11.7759 19.5258 11.8338 18.9744 11.9441 18.4417C11.5235 17.7358 11.2812 16.9142 11.2812 16.0364C11.2812 13.4105 13.4404 11.2812 16.104 11.2812C17.0472 11.2812 17.9265 11.5492 18.6698 12.0109C19.132 11.9323 19.6071 11.891 20.092 11.891C24.6849 11.891 28.4081 15.5622 28.4081 20.0908ZM22.6653 25.2736C23.4018 24.9718 23.9702 24.5464 24.3549 24.0096C24.7409 23.4708 24.9367 22.8552 24.9368 22.1795C24.9368 21.6151 24.8231 21.1291 24.5987 20.7356C24.3749 20.3434 24.0595 20.015 23.6612 19.7592C23.2709 19.5089 22.7923 19.2933 22.2386 19.1186C22.1471 19.0897 22.0528 19.0613 21.9573 19.0332C21.4823 18.8934 20.9605 18.7628 20.4002 18.6441C19.8684 18.523 19.4806 18.4293 19.2494 18.3661C19.0238 18.3047 18.7986 18.2186 18.58 18.1102C18.3693 18.0063 18.2026 17.8813 18.0844 17.739C17.9728 17.6046 17.9186 17.4485 17.9186 17.2616C17.9186 16.957 18.0871 16.6999 18.434 16.4757C18.794 16.243 19.2788 16.125 19.8749 16.125C20.5167 16.125 20.9839 16.2314 21.2633 16.441C21.5513 16.6568 21.8022 16.963 22.0096 17.3515C22.1888 17.6558 22.3502 17.8673 22.5059 18.003C22.6731 18.1491 22.9142 18.2232 23.2222 18.2232C23.5612 18.2232 23.8486 18.1047 24.0763 17.8713C24.3026 17.6392 24.4174 17.3729 24.4174 17.08C24.4174 16.7755 24.3299 16.4608 24.1573 16.1446C23.9864 15.8315 23.7144 15.53 23.3486 15.2482C22.9856 14.9686 22.5234 14.7413 21.9753 14.5729C21.4303 14.4059 20.7773 14.3213 20.0346 14.3213C19.1057 14.3213 18.2848 14.4488 17.5946 14.7005C16.8954 14.9555 16.3523 15.3272 15.9804 15.8054C15.6057 16.2871 15.4157 16.8454 15.4157 17.4649C15.4157 18.1147 15.5967 18.6676 15.9538 19.1082C16.3054 19.5421 16.7861 19.8889 17.3824 20.139L17.3892 20.1418C17.9712 20.3853 18.7021 20.6007 19.5619 20.7823C20.1965 20.9133 20.7096 21.0386 21.0876 21.1547C21.4501 21.2662 21.7486 21.4286 21.975 21.6373C22.191 21.837 22.2961 22.0913 22.2961 22.4151C22.2961 22.8248 22.0948 23.1594 21.6807 23.4382C21.2567 23.7237 20.693 23.8684 20.0056 23.8684C19.5057 23.8684 19.0993 23.7971 18.7978 23.6563C18.4981 23.5167 18.2634 23.3377 18.1003 23.1248C17.9306 22.9035 17.77 22.6225 17.6226 22.2897C17.4906 21.9841 17.3263 21.7474 17.135 21.5874C16.9345 21.4205 16.6881 21.3359 16.4023 21.3359C16.0542 21.3359 15.7623 21.443 15.5344 21.6543C15.3042 21.8675 15.1875 22.128 15.1875 22.4284C15.1875 22.9091 15.3667 23.4077 15.7199 23.9101C16.0697 24.4075 16.5304 24.8105 17.0892 25.1082C17.8707 25.517 18.8721 25.7241 20.0666 25.7241C21.0617 25.7241 21.936 25.5726 22.6653 25.2736Z" fill="white"/>
</svg>
