<svg width="40" height="40" viewBox="0 0 40 40" fill="none" xmlns="http://www.w3.org/2000/svg">
<circle cx="20" cy="20" r="20" fill="#45AEE4"/>
<path fill-rule="evenodd" clip-rule="evenodd" d="M15.0244 21.3493L10.9455 19.7437C10.5312 19.5799 10.5276 18.9631 10.9407 18.795L27.6809 11.9841C28.0358 11.8393 28.402 12.1673 28.3247 12.5603L25.3205 27.8009C25.2497 28.1607 24.8497 28.3239 24.5674 28.1075L20.4664 24.9673C20.2174 24.7766 19.8779 24.7868 19.6396 24.9916L17.3659 26.9465C17.1019 27.1741 16.7043 27.0473 16.6033 26.7044L15.0244 21.3493ZM24.3221 15.3164L16.3503 20.4947C16.0447 20.6936 15.9009 21.0828 15.9996 21.4471L16.8615 24.6413C16.9227 24.8677 17.2342 24.8445 17.2639 24.6106L17.488 22.8589C17.5303 22.5291 17.6794 22.2253 17.9107 21.9983L24.4898 15.5483C24.6128 15.4279 24.4654 15.2236 24.3221 15.3164Z" fill="white"/>
<path d="M16.3503 20.4947L24.3221 15.3164C24.4654 15.2236 24.6128 15.4279 24.4898 15.5483L17.9107 21.9983C17.6794 22.2253 17.5303 22.5291 17.488 22.8589L17.2639 24.6106C17.2342 24.8445 16.9227 24.8677 16.8615 24.6413L15.9996 21.4471C15.9009 21.0828 16.0447 20.6936 16.3503 20.4947Z" fill="#EAEAEA"/>
</svg>
